<?xml version="1.0" standalone="yes"?>

<svg version="1.1" viewBox="0.0 0.0 960.0 720.0" fill="none" stroke="none" stroke-linecap="square" stroke-miterlimit="10" xmlns="http://www.w3.org/2000/svg" xmlns:xlink="http://www.w3.org/1999/xlink"><clipPath id="p.0"><path d="m0 0l960.0 0l0 720.0l-960.0 0l0 -720.0z" clip-rule="nonzero"></path></clipPath><g clip-path="url(#p.0)"><path fill="#000000" fill-opacity="0.0" d="m0 0l960.0 0l0 720.0l-960.0 0z" fill-rule="evenodd"></path><path fill="#000000" fill-opacity="0.0" d="m77.83727 602.02625l204.31494 0" fill-rule="evenodd"></path><path stroke="#000000" stroke-width="4.0" stroke-linejoin="round" stroke-linecap="butt" d="m77.83727 602.02625l204.31494 0" fill-rule="evenodd"></path><path fill="#000000" fill-opacity="0.0" d="m178.78477 599.5958l-3.653534 -501.0709" fill-rule="evenodd"></path><path stroke="#000000" stroke-width="4.0" stroke-linejoin="round" stroke-linecap="butt" d="m178.78477 599.5958l-3.653534 -501.0709" fill-rule="evenodd"></path><path fill="#000000" fill-opacity="0.0" d="m166.61942 96.09449l272.44095 -1.2283478" fill-rule="evenodd"></path><path stroke="#000000" stroke-width="4.0" stroke-linejoin="round" stroke-linecap="butt" d="m166.61942 96.09449l272.44095 -1.2283478" fill-rule="evenodd"></path><path fill="#000000" fill-opacity="0.0" d="m437.83728 94.86614l0 79.05512" fill-rule="evenodd"></path><path stroke="#000000" stroke-width="4.0" stroke-linejoin="round" stroke-linecap="butt" d="m437.83728 94.86614l0 79.05512" fill-rule="evenodd"></path><path fill="#000000" fill-opacity="0.0" d="m404.38846 205.5433l0 0c0 -17.46437 14.975525 -31.62204 33.448822 -31.62204l0 0c8.871155 0 17.378998 3.3315887 23.651886 9.261871c6.2728577 5.930298 9.796936 13.97348 9.796936 22.360168l0 0c0 17.46437 -14.975555 31.622055 -33.448822 31.622055l0 0c-18.473297 0 -33.448822 -14.157684 -33.448822 -31.622055z" fill-rule="evenodd"></path><path stroke="#000000" stroke-width="4.0" stroke-linejoin="round" stroke-linecap="butt" d="m404.38846 205.5433l0 0c0 -17.46437 14.975525 -31.62204 33.448822 -31.62204l0 0c8.871155 0 17.378998 3.3315887 23.651886 9.261871c6.2728577 5.930298 9.796936 13.97348 9.796936 22.360168l0 0c0 17.46437 -14.975555 31.622055 -33.448822 31.622055l0 0c-18.473297 0 -33.448822 -14.157684 -33.448822 -31.622055z" fill-rule="evenodd"></path><path fill="#000000" fill-opacity="0.0" d="m437.83728 237.16536l1.2283325 144.72441" fill-rule="evenodd"></path><path stroke="#000000" stroke-width="4.0" stroke-linejoin="round" stroke-linecap="butt" d="m437.83728 237.16536l1.2283325 144.72441" fill-rule="evenodd"></path><path fill="#000000" fill-opacity="0.0" d="m439.0656 381.88977l-49.858276 86.36221" fill-rule="evenodd"></path><path stroke="#000000" stroke-width="4.0" stroke-linejoin="round" stroke-linecap="butt" d="m439.0656 381.88977l-49.858276 86.36221" fill-rule="evenodd"></path><path fill="#000000" fill-opacity="0.0" d="m440.27036 384.32547l49.858246 82.70865" fill-rule="evenodd"></path><path stroke="#000000" stroke-width="4.0" stroke-linejoin="round" stroke-linecap="butt" d="m440.27036 384.32547l49.858246 82.70865" fill-rule="evenodd"></path><path fill="#000000" fill-opacity="0.0" d="m385.54068 295.54068l53.51181 0" fill-rule="evenodd"></path><path stroke="#000000" stroke-width="4.0" stroke-linejoin="round" stroke-linecap="butt" d="m385.54068 295.54068l53.51181 0" fill-rule="evenodd"></path><path fill="#000000" fill-opacity="0.0" d="m437.83728 294.32285l53.51181 0" fill-rule="evenodd"></path><path stroke="#000000" stroke-width="4.0" stroke-linejoin="round" stroke-linecap="butt" d="m437.83728 294.32285l53.51181 0" fill-rule="evenodd"></path><path fill="#000000" fill-opacity="0.0" d="m419.87927 188.91339l7.7795105 7.3385773" fill-rule="evenodd"></path><path stroke="#000000" stroke-width="1.0" stroke-linejoin="round" stroke-linecap="butt" d="m419.87927 188.91339l7.7795105 7.3385773" fill-rule="evenodd"></path><path fill="#000000" fill-opacity="0.0" d="m428.29135 188.26772l-8.188995 8.850388" fill-rule="evenodd"></path><path stroke="#000000" stroke-width="1.0" stroke-linejoin="round" stroke-linecap="butt" d="m428.29135 188.26772l-8.188995 8.850388" fill-rule="evenodd"></path><path fill="#000000" fill-opacity="0.0" d="m443.86353 189.02362l7.7795105 7.3385773" fill-rule="evenodd"></path><path stroke="#000000" stroke-width="1.0" stroke-linejoin="round" stroke-linecap="butt" d="m443.86353 189.02362l7.7795105 7.3385773" fill-rule="evenodd"></path><path fill="#000000" fill-opacity="0.0" d="m451.84778 188.15749l-8.188995 8.850388" fill-rule="evenodd"></path><path stroke="#000000" stroke-width="1.0" stroke-linejoin="round" stroke-linecap="butt" d="m451.84778 188.15749l-8.188995 8.850388" fill-rule="evenodd"></path><path fill="#000000" fill-opacity="0.0" d="m418.3701 212.41995l39.685028 -0.6614227" fill-rule="evenodd"></path><path stroke="#000000" stroke-width="1.0" stroke-linejoin="round" stroke-linecap="butt" d="m418.3701 212.41995l39.685028 -0.6614227" fill-rule="evenodd"></path><path fill="#000000" fill-opacity="0.0" d="m442.64044 224.07349l7.3700256 0l0 0c0.48867798 0 0.9573364 -0.19412231 1.302887 -0.53967285c0.34555054 -0.34553528 0.53967285 -0.814209 0.53967285 -1.3028717l0 -9.810989c0 -6.1035156E-5 -6.1035156E-5 -9.1552734E-5 -9.1552734E-5 -9.1552734E-5l-11.055023 9.1552734E-5l0 0c-6.1035156E-5 0 -9.1552734E-5 3.0517578E-5 -9.1552734E-5 9.1552734E-5l9.1552734E-5 9.810898l0 0c0 1.0176086 0.82492065 1.8425446 1.8425293 1.8425446z" fill-rule="evenodd"></path><path stroke="#000000" stroke-width="1.0" stroke-linejoin="round" stroke-linecap="butt" d="m442.64044 224.07349l7.3700256 0l0 0c0.48867798 0 0.9573364 -0.19412231 1.302887 -0.53967285c0.34555054 -0.34553528 0.53967285 -0.814209 0.53967285 -1.3028717l0 -9.810989c0 -6.1035156E-5 -6.1035156E-5 -9.1552734E-5 -9.1552734E-5 -9.1552734E-5l-11.055023 9.1552734E-5l0 0c-6.1035156E-5 0 -9.1552734E-5 3.0517578E-5 -9.1552734E-5 9.1552734E-5l9.1552734E-5 9.810898l0 0c0 1.0176086 0.82492065 1.8425446 1.8425293 1.8425446z" fill-rule="evenodd"></path><path fill="#000000" fill-opacity="0.0" d="m178.0 202.0l90.01575 -104.0" fill-rule="evenodd"></path><path stroke="#000000" stroke-width="4.0" stroke-linejoin="round" stroke-linecap="butt" d="m178.0 202.0l90.01575 -104.0" fill-rule="evenodd"></path></g></svg>

