<?xml version="1.0" standalone="yes"?>

<svg version="1.1" viewBox="0.0 0.0 960.0 720.0" fill="none" stroke="none" stroke-linecap="square" stroke-miterlimit="10" xmlns="http://www.w3.org/2000/svg" xmlns:xlink="http://www.w3.org/1999/xlink"><clipPath id="p.0"><path d="m0 0l960.0 0l0 720.0l-960.0 0l0 -720.0z" clip-rule="nonzero"></path></clipPath><g clip-path="url(#p.0)"><path fill="#000000" fill-opacity="0.0" d="m0 0l960.0 0l0 720.0l-960.0 0z" fill-rule="evenodd"></path><path fill="#000000" fill-opacity="0.0" d="m77.83727 602.02625l204.31494 0" fill-rule="evenodd"></path><path stroke="#000000" stroke-width="4.0" stroke-linejoin="round" stroke-linecap="butt" d="m77.83727 602.02625l204.31494 0" fill-rule="evenodd"></path><path fill="#000000" fill-opacity="0.0" d="m178.78477 599.5958l-3.653534 -501.0709" fill-rule="evenodd"></path><path stroke="#000000" stroke-width="4.0" stroke-linejoin="round" stroke-linecap="butt" d="m178.78477 599.5958l-3.653534 -501.0709" fill-rule="evenodd"></path><path fill="#000000" fill-opacity="0.0" d="m166.61942 96.09449l272.44095 -1.2283478" fill-rule="evenodd"></path><path stroke="#000000" stroke-width="4.0" stroke-linejoin="round" stroke-linecap="butt" d="m166.61942 96.09449l272.44095 -1.2283478" fill-rule="evenodd"></path><path fill="#000000" fill-opacity="0.0" d="m437.83728 94.86614l0 79.05512" fill-rule="evenodd"></path><path stroke="#000000" stroke-width="4.0" stroke-linejoin="round" stroke-linecap="butt" d="m437.83728 94.86614l0 79.05512" fill-rule="evenodd"></path><path fill="#000000" fill-opacity="0.0" d="m404.38846 205.5433l0 0c0 -17.46437 14.975525 -31.62204 33.448822 -31.62204l0 0c8.871155 0 17.378998 3.3315887 23.651886 9.261871c6.2728577 5.930298 9.796936 13.97348 9.796936 22.360168l0 0c0 17.46437 -14.975555 31.622055 -33.448822 31.622055l0 0c-18.473297 0 -33.448822 -14.157684 -33.448822 -31.622055z" fill-rule="evenodd"></path><path stroke="#000000" stroke-width="4.0" stroke-linejoin="round" stroke-linecap="butt" d="m404.38846 205.5433l0 0c0 -17.46437 14.975525 -31.62204 33.448822 -31.62204l0 0c8.871155 0 17.378998 3.3315887 23.651886 9.261871c6.2728577 5.930298 9.796936 13.97348 9.796936 22.360168l0 0c0 17.46437 -14.975555 31.622055 -33.448822 31.622055l0 0c-18.473297 0 -33.448822 -14.157684 -33.448822 -31.622055z" fill-rule="evenodd"></path><path fill="#000000" fill-opacity="0.0" d="m437.83728 237.16536l1.2283325 144.72441" fill-rule="evenodd"></path><path stroke="#000000" stroke-width="4.0" stroke-linejoin="round" stroke-linecap="butt" d="m437.83728 237.16536l1.2283325 144.72441" fill-rule="evenodd"></path></g></svg>

